<svg width="115" height="46" viewBox="0 0 115 46" fill="none" xmlns="http://www.w3.org/2000/svg">
<path d="M5.36313 22.4344C7.06938 24.3047 8.25064 26.175 8.25064 27.8156C8.25064 28.4719 8.25064 30.0797 6.61001 30.0797C5.13345 30.0797 4.96939 28.7016 4.96939 27.0937C4.96939 26.6016 4.80532 26.4375 4.31313 26.4375H2.3772C1.88501 26.4375 1.72095 26.7 1.72095 27.1922C1.72095 30.7359 3.09907 33.0984 6.61001 33.0984C9.89126 33.0984 11.5319 30.9 11.5319 27.9469C11.5319 25.0594 9.79282 22.5984 7.8897 20.5312C6.18345 18.6609 5.0022 16.8562 5.0022 15.2156C5.0022 14.5594 5.0022 12.9516 6.64282 12.9516C8.11939 12.9516 8.28345 14.3297 8.28345 15.9375C8.28345 16.4297 8.44751 16.5938 8.9397 16.5938H10.8756C11.3678 16.5938 11.5319 16.3312 11.5319 15.8391C11.5319 12.2953 10.1538 9.93281 6.64282 9.93281C3.36157 9.93281 1.72095 12.1312 1.72095 15.0844C1.72095 17.9719 3.46001 20.3672 5.36313 22.4344ZM22.8555 18.825V16.5938C22.8555 11.6719 21.2149 10.0312 17.9337 10.0312H13.668C13.1758 10.0312 13.0118 10.1953 13.0118 10.6875V32.3437C13.0118 32.8359 13.143 33 13.668 33H15.6368C16.0962 33 16.293 32.8359 16.293 32.3437V26.0109C16.293 25.3547 16.293 25.3547 16.9493 25.3547H17.9337C21.2149 25.3547 22.8555 23.7141 22.8555 18.825ZM16.293 13.6078C16.293 12.9516 16.293 12.9516 16.9493 12.9516H17.9337C19.5743 12.9516 19.5743 14.625 19.5743 16.2984V19.0875C19.5743 20.7609 19.5743 22.4344 17.9337 22.4344H16.9493C16.293 22.4344 16.293 22.4344 16.293 21.8437V13.6078ZM25.4921 33H27.4608C27.7889 33 28.1171 33 28.1171 32.3437V10.6875C28.1171 10.1953 27.953 10.0312 27.4608 10.0312H25.4921C24.9999 10.0312 24.8358 10.1953 24.8358 10.6875V32.3437C24.8358 33 25.1639 33 25.4921 33ZM29.5988 10.6875V12.4594C29.5988 12.7875 29.5988 13.1156 30.255 13.1156H32.2566C32.88 13.1156 32.88 13.1156 32.88 13.7719V32.3437C32.88 33 33.2081 33 33.5363 33H35.505C35.8331 33 36.1613 33 36.1613 32.3437V13.7719C36.1613 13.1156 36.1613 13.1156 36.8175 13.1156H38.7863C39.2784 13.1156 39.4425 12.9516 39.4425 12.4594V10.6875C39.4425 10.1953 39.2784 10.0312 38.7863 10.0312H30.255C29.5988 10.0312 29.5988 10.3594 29.5988 10.6875ZM44.3341 33H46.3029C46.631 33 46.9591 33 46.9591 32.3437V25.0266C46.9591 24.6984 50.2732 10.6875 50.2732 10.6875C50.306 10.3594 50.3716 10.0312 49.7154 10.0312H47.7466C47.0904 10.0312 47.1232 10.1953 46.9919 10.6875L45.5154 17.9062C45.4826 18.1031 45.2529 18.1031 45.2201 17.9062L43.7763 10.6875C43.6451 10.1953 43.6123 10.0312 43.0216 10.0312H40.9216C40.4951 10.0312 40.3966 10.3266 40.4951 10.6875C40.4951 10.6875 43.6779 24.6984 43.6779 25.0266V32.3437C43.6779 33 44.006 33 44.3341 33ZM51.7844 23.0906V24.8625C51.7844 25.3547 51.9156 25.5187 52.2766 25.5187H58.3469C58.7078 25.5187 58.8062 25.3547 58.8062 24.8625V23.0906C58.8062 22.5984 58.7078 22.4344 58.3469 22.4344H52.2766C51.9156 22.4344 51.7844 22.5984 51.7844 23.0906ZM63.9386 22.4344C65.6448 24.3047 66.8261 26.175 66.8261 27.8156C66.8261 28.4719 66.8261 30.0797 65.1854 30.0797C63.7089 30.0797 63.5448 28.7016 63.5448 27.0937C63.5448 26.6016 63.3808 26.4375 62.8886 26.4375H60.9526C60.4604 26.4375 60.2964 26.7 60.2964 27.1922C60.2964 30.7359 61.6745 33.0984 65.1854 33.0984C68.4667 33.0984 70.1073 30.9 70.1073 27.9469C70.1073 25.0594 68.3683 22.5984 66.4651 20.5312C64.7589 18.6609 63.5776 16.8562 63.5776 15.2156C63.5776 14.5594 63.5776 12.9516 65.2183 12.9516C66.6948 12.9516 66.8589 14.3297 66.8589 15.9375C66.8589 16.4297 67.0229 16.5938 67.5151 16.5938H69.4511C69.9433 16.5938 70.1073 16.3312 70.1073 15.8391C70.1073 12.2953 68.7292 9.93281 65.2183 9.93281C61.937 9.93281 60.2964 12.1312 60.2964 15.0844C60.2964 17.9719 62.0354 20.3672 63.9386 22.4344ZM72.2435 33H79.1669C79.6591 33 79.8232 32.8359 79.8232 32.3437V30.5719C79.8232 30.0797 79.6591 29.9156 79.1669 29.9156H75.5247C74.8685 29.9156 74.8685 29.9156 74.8685 29.2594V23.0906C74.8685 22.4344 74.8685 22.4344 75.5247 22.4344H79.1669C79.6591 22.4344 79.8232 22.2703 79.8232 21.7781V20.0062C79.8232 19.5141 79.6591 19.35 79.1669 19.35H75.5247C74.8685 19.35 74.8685 19.35 74.8685 18.6937V13.7719C74.8685 13.1156 74.8685 13.1156 75.5247 13.1156H79.1669C79.6591 13.1156 79.8232 12.9516 79.8232 12.4594V10.6875C79.8232 10.1953 79.6591 10.0312 79.1669 10.0312H72.2435C71.7513 10.0312 71.5872 10.1953 71.5872 10.6875V32.3437C71.5872 33 71.9153 33 72.2435 33ZM89.9802 33H91.7849C92.277 33 92.4411 32.8359 92.4411 32.3437V10.6875C92.4411 10.1953 92.277 10.0312 91.7849 10.0312H89.8161C89.3239 10.0312 89.1599 10.1953 89.1599 10.6875V21.8437C89.1599 22.0078 88.963 22.0406 88.8974 21.8437L84.8942 10.4578C84.763 10.0969 84.5989 10.0312 84.238 10.0312H82.4333C81.9411 10.0312 81.777 10.1953 81.777 10.6875V32.3437C81.777 32.8359 81.9411 33 82.4333 33H84.402C84.8942 33 85.0583 32.8359 85.0583 32.3437V21.3516C85.0583 21.1875 85.2552 21.1219 85.3208 21.3516L89.3239 32.6062C89.4552 32.9344 89.6849 33 89.9802 33ZM97.5522 22.4344C99.2584 24.3047 100.44 26.175 100.44 27.8156C100.44 28.4719 100.44 30.0797 98.799 30.0797C97.3225 30.0797 97.1584 28.7016 97.1584 27.0937C97.1584 26.6016 96.9943 26.4375 96.5022 26.4375H94.5662C94.074 26.4375 93.91 26.7 93.91 27.1922C93.91 30.7359 95.2881 33.0984 98.799 33.0984C102.08 33.0984 103.721 30.9 103.721 27.9469C103.721 25.0594 101.982 22.5984 100.079 20.5312C98.3725 18.6609 97.1912 16.8562 97.1912 15.2156C97.1912 14.5594 97.1912 12.9516 98.8318 12.9516C100.308 12.9516 100.472 14.3297 100.472 15.9375C100.472 16.4297 100.637 16.5938 101.129 16.5938H103.065C103.557 16.5938 103.721 16.3312 103.721 15.8391C103.721 12.2953 102.343 9.93281 98.8318 9.93281C95.5506 9.93281 93.91 12.1312 93.91 15.0844C93.91 17.9719 95.649 20.3672 97.5522 22.4344ZM105.857 33H112.78C113.273 33 113.437 32.8359 113.437 32.3437V30.5719C113.437 30.0797 113.273 29.9156 112.78 29.9156H109.138C108.482 29.9156 108.482 29.9156 108.482 29.2594V23.0906C108.482 22.4344 108.482 22.4344 109.138 22.4344H112.78C113.273 22.4344 113.437 22.2703 113.437 21.7781V20.0062C113.437 19.5141 113.273 19.35 112.78 19.35H109.138C108.482 19.35 108.482 19.35 108.482 18.6937V13.7719C108.482 13.1156 108.482 13.1156 109.138 13.1156H112.78C113.273 13.1156 113.437 12.9516 113.437 12.4594V10.6875C113.437 10.1953 113.273 10.0312 112.78 10.0312H105.857C105.365 10.0312 105.201 10.1953 105.201 10.6875V32.3437C105.201 33 105.529 33 105.857 33Z" fill="white" fill-opacity="0.2"/>
<path d="M5.36313 20.4344C7.06938 22.3047 8.25064 24.175 8.25064 25.8156C8.25064 26.4719 8.25064 28.0797 6.61001 28.0797C5.13345 28.0797 4.96939 26.7016 4.96939 25.0937C4.96939 24.6016 4.80532 24.4375 4.31313 24.4375H2.3772C1.88501 24.4375 1.72095 24.7 1.72095 25.1922C1.72095 28.7359 3.09907 31.0984 6.61001 31.0984C9.89126 31.0984 11.5319 28.9 11.5319 25.9469C11.5319 23.0594 9.79282 20.5984 7.8897 18.5312C6.18345 16.6609 5.0022 14.8562 5.0022 13.2156C5.0022 12.5594 5.0022 10.9516 6.64282 10.9516C8.11939 10.9516 8.28345 12.3297 8.28345 13.9375C8.28345 14.4297 8.44751 14.5938 8.9397 14.5938H10.8756C11.3678 14.5938 11.5319 14.3312 11.5319 13.8391C11.5319 10.2953 10.1538 7.93281 6.64282 7.93281C3.36157 7.93281 1.72095 10.1312 1.72095 13.0844C1.72095 15.9719 3.46001 18.3672 5.36313 20.4344ZM22.8555 16.825V14.5938C22.8555 9.67187 21.2149 8.03125 17.9337 8.03125H13.668C13.1758 8.03125 13.0118 8.19531 13.0118 8.6875V30.3437C13.0118 30.8359 13.143 31 13.668 31H15.6368C16.0962 31 16.293 30.8359 16.293 30.3437V24.0109C16.293 23.3547 16.293 23.3547 16.9493 23.3547H17.9337C21.2149 23.3547 22.8555 21.7141 22.8555 16.825ZM16.293 11.6078C16.293 10.9516 16.293 10.9516 16.9493 10.9516H17.9337C19.5743 10.9516 19.5743 12.625 19.5743 14.2984V17.0875C19.5743 18.7609 19.5743 20.4344 17.9337 20.4344H16.9493C16.293 20.4344 16.293 20.4344 16.293 19.8437V11.6078ZM25.4921 31H27.4608C27.7889 31 28.1171 31 28.1171 30.3437V8.6875C28.1171 8.19531 27.953 8.03125 27.4608 8.03125H25.4921C24.9999 8.03125 24.8358 8.19531 24.8358 8.6875V30.3437C24.8358 31 25.1639 31 25.4921 31ZM29.5988 8.6875V10.4594C29.5988 10.7875 29.5988 11.1156 30.255 11.1156H32.2566C32.88 11.1156 32.88 11.1156 32.88 11.7719V30.3437C32.88 31 33.2081 31 33.5363 31H35.505C35.8331 31 36.1613 31 36.1613 30.3437V11.7719C36.1613 11.1156 36.1613 11.1156 36.8175 11.1156H38.7863C39.2784 11.1156 39.4425 10.9516 39.4425 10.4594V8.6875C39.4425 8.19531 39.2784 8.03125 38.7863 8.03125H30.255C29.5988 8.03125 29.5988 8.35937 29.5988 8.6875ZM44.3341 31H46.3029C46.631 31 46.9591 31 46.9591 30.3437V23.0266C46.9591 22.6984 50.2732 8.6875 50.2732 8.6875C50.306 8.35937 50.3716 8.03125 49.7154 8.03125H47.7466C47.0904 8.03125 47.1232 8.19531 46.9919 8.6875L45.5154 15.9062C45.4826 16.1031 45.2529 16.1031 45.2201 15.9062L43.7763 8.6875C43.6451 8.19531 43.6123 8.03125 43.0216 8.03125H40.9216C40.4951 8.03125 40.3966 8.32656 40.4951 8.6875C40.4951 8.6875 43.6779 22.6984 43.6779 23.0266V30.3437C43.6779 31 44.006 31 44.3341 31ZM51.7844 21.0906V22.8625C51.7844 23.3547 51.9156 23.5187 52.2766 23.5187H58.3469C58.7078 23.5187 58.8062 23.3547 58.8062 22.8625V21.0906C58.8062 20.5984 58.7078 20.4344 58.3469 20.4344H52.2766C51.9156 20.4344 51.7844 20.5984 51.7844 21.0906ZM63.9386 20.4344C65.6448 22.3047 66.8261 24.175 66.8261 25.8156C66.8261 26.4719 66.8261 28.0797 65.1854 28.0797C63.7089 28.0797 63.5448 26.7016 63.5448 25.0937C63.5448 24.6016 63.3808 24.4375 62.8886 24.4375H60.9526C60.4604 24.4375 60.2964 24.7 60.2964 25.1922C60.2964 28.7359 61.6745 31.0984 65.1854 31.0984C68.4667 31.0984 70.1073 28.9 70.1073 25.9469C70.1073 23.0594 68.3683 20.5984 66.4651 18.5312C64.7589 16.6609 63.5776 14.8562 63.5776 13.2156C63.5776 12.5594 63.5776 10.9516 65.2183 10.9516C66.6948 10.9516 66.8589 12.3297 66.8589 13.9375C66.8589 14.4297 67.0229 14.5938 67.5151 14.5938H69.4511C69.9433 14.5938 70.1073 14.3312 70.1073 13.8391C70.1073 10.2953 68.7292 7.93281 65.2183 7.93281C61.937 7.93281 60.2964 10.1312 60.2964 13.0844C60.2964 15.9719 62.0354 18.3672 63.9386 20.4344ZM72.2435 31H79.1669C79.6591 31 79.8232 30.8359 79.8232 30.3437V28.5719C79.8232 28.0797 79.6591 27.9156 79.1669 27.9156H75.5247C74.8685 27.9156 74.8685 27.9156 74.8685 27.2594V21.0906C74.8685 20.4344 74.8685 20.4344 75.5247 20.4344H79.1669C79.6591 20.4344 79.8232 20.2703 79.8232 19.7781V18.0062C79.8232 17.5141 79.6591 17.35 79.1669 17.35H75.5247C74.8685 17.35 74.8685 17.35 74.8685 16.6937V11.7719C74.8685 11.1156 74.8685 11.1156 75.5247 11.1156H79.1669C79.6591 11.1156 79.8232 10.9516 79.8232 10.4594V8.6875C79.8232 8.19531 79.6591 8.03125 79.1669 8.03125H72.2435C71.7513 8.03125 71.5872 8.19531 71.5872 8.6875V30.3437C71.5872 31 71.9153 31 72.2435 31ZM89.9802 31H91.7849C92.277 31 92.4411 30.8359 92.4411 30.3437V8.6875C92.4411 8.19531 92.277 8.03125 91.7849 8.03125H89.8161C89.3239 8.03125 89.1599 8.19531 89.1599 8.6875V19.8437C89.1599 20.0078 88.963 20.0406 88.8974 19.8437L84.8942 8.45781C84.763 8.09687 84.5989 8.03125 84.238 8.03125H82.4333C81.9411 8.03125 81.777 8.19531 81.777 8.6875V30.3437C81.777 30.8359 81.9411 31 82.4333 31H84.402C84.8942 31 85.0583 30.8359 85.0583 30.3437V19.3516C85.0583 19.1875 85.2552 19.1219 85.3208 19.3516L89.3239 30.6062C89.4552 30.9344 89.6849 31 89.9802 31ZM97.5522 20.4344C99.2584 22.3047 100.44 24.175 100.44 25.8156C100.44 26.4719 100.44 28.0797 98.799 28.0797C97.3225 28.0797 97.1584 26.7016 97.1584 25.0937C97.1584 24.6016 96.9943 24.4375 96.5022 24.4375H94.5662C94.074 24.4375 93.91 24.7 93.91 25.1922C93.91 28.7359 95.2881 31.0984 98.799 31.0984C102.08 31.0984 103.721 28.9 103.721 25.9469C103.721 23.0594 101.982 20.5984 100.079 18.5312C98.3725 16.6609 97.1912 14.8562 97.1912 13.2156C97.1912 12.5594 97.1912 10.9516 98.8318 10.9516C100.308 10.9516 100.472 12.3297 100.472 13.9375C100.472 14.4297 100.637 14.5938 101.129 14.5938H103.065C103.557 14.5938 103.721 14.3312 103.721 13.8391C103.721 10.2953 102.343 7.93281 98.8318 7.93281C95.5506 7.93281 93.91 10.1312 93.91 13.0844C93.91 15.9719 95.649 18.3672 97.5522 20.4344ZM105.857 31H112.78C113.273 31 113.437 30.8359 113.437 30.3437V28.5719C113.437 28.0797 113.273 27.9156 112.78 27.9156H109.138C108.482 27.9156 108.482 27.9156 108.482 27.2594V21.0906C108.482 20.4344 108.482 20.4344 109.138 20.4344H112.78C113.273 20.4344 113.437 20.2703 113.437 19.7781V18.0062C113.437 17.5141 113.273 17.35 112.78 17.35H109.138C108.482 17.35 108.482 17.35 108.482 16.6937V11.7719C108.482 11.1156 108.482 11.1156 109.138 11.1156H112.78C113.273 11.1156 113.437 10.9516 113.437 10.4594V8.6875C113.437 8.19531 113.273 8.03125 112.78 8.03125H105.857C105.365 8.03125 105.201 8.19531 105.201 8.6875V30.3437C105.201 31 105.529 31 105.857 31Z" fill="white" fill-opacity="0.3"/>
<path d="M5.36313 18.4344C7.06938 20.3047 8.25064 22.175 8.25064 23.8156C8.25064 24.4719 8.25064 26.0797 6.61001 26.0797C5.13345 26.0797 4.96939 24.7016 4.96939 23.0937C4.96939 22.6016 4.80532 22.4375 4.31313 22.4375H2.3772C1.88501 22.4375 1.72095 22.7 1.72095 23.1922C1.72095 26.7359 3.09907 29.0984 6.61001 29.0984C9.89126 29.0984 11.5319 26.9 11.5319 23.9469C11.5319 21.0594 9.79282 18.5984 7.8897 16.5312C6.18345 14.6609 5.0022 12.8562 5.0022 11.2156C5.0022 10.5594 5.0022 8.95156 6.64282 8.95156C8.11939 8.95156 8.28345 10.3297 8.28345 11.9375C8.28345 12.4297 8.44751 12.5938 8.9397 12.5938H10.8756C11.3678 12.5938 11.5319 12.3312 11.5319 11.8391C11.5319 8.29531 10.1538 5.93281 6.64282 5.93281C3.36157 5.93281 1.72095 8.13125 1.72095 11.0844C1.72095 13.9719 3.46001 16.3672 5.36313 18.4344ZM22.8555 14.825V12.5938C22.8555 7.67187 21.2149 6.03125 17.9337 6.03125H13.668C13.1758 6.03125 13.0118 6.19531 13.0118 6.6875V28.3437C13.0118 28.8359 13.143 29 13.668 29H15.6368C16.0962 29 16.293 28.8359 16.293 28.3437V22.0109C16.293 21.3547 16.293 21.3547 16.9493 21.3547H17.9337C21.2149 21.3547 22.8555 19.7141 22.8555 14.825ZM16.293 9.60781C16.293 8.95156 16.293 8.95156 16.9493 8.95156H17.9337C19.5743 8.95156 19.5743 10.625 19.5743 12.2984V15.0875C19.5743 16.7609 19.5743 18.4344 17.9337 18.4344H16.9493C16.293 18.4344 16.293 18.4344 16.293 17.8437V9.60781ZM25.4921 29H27.4608C27.7889 29 28.1171 29 28.1171 28.3437V6.6875C28.1171 6.19531 27.953 6.03125 27.4608 6.03125H25.4921C24.9999 6.03125 24.8358 6.19531 24.8358 6.6875V28.3437C24.8358 29 25.1639 29 25.4921 29ZM29.5988 6.6875V8.45937C29.5988 8.7875 29.5988 9.11562 30.255 9.11562H32.2566C32.88 9.11562 32.88 9.11562 32.88 9.77187V28.3437C32.88 29 33.2081 29 33.5363 29H35.505C35.8331 29 36.1613 29 36.1613 28.3437V9.77187C36.1613 9.11562 36.1613 9.11562 36.8175 9.11562H38.7863C39.2784 9.11562 39.4425 8.95156 39.4425 8.45937V6.6875C39.4425 6.19531 39.2784 6.03125 38.7863 6.03125H30.255C29.5988 6.03125 29.5988 6.35937 29.5988 6.6875ZM44.3341 29H46.3029C46.631 29 46.9591 29 46.9591 28.3437V21.0266C46.9591 20.6984 50.2732 6.6875 50.2732 6.6875C50.306 6.35937 50.3716 6.03125 49.7154 6.03125H47.7466C47.0904 6.03125 47.1232 6.19531 46.9919 6.6875L45.5154 13.9062C45.4826 14.1031 45.2529 14.1031 45.2201 13.9062L43.7763 6.6875C43.6451 6.19531 43.6123 6.03125 43.0216 6.03125H40.9216C40.4951 6.03125 40.3966 6.32656 40.4951 6.6875C40.4951 6.6875 43.6779 20.6984 43.6779 21.0266V28.3437C43.6779 29 44.006 29 44.3341 29ZM51.7844 19.0906V20.8625C51.7844 21.3547 51.9156 21.5187 52.2766 21.5187H58.3469C58.7078 21.5187 58.8062 21.3547 58.8062 20.8625V19.0906C58.8062 18.5984 58.7078 18.4344 58.3469 18.4344H52.2766C51.9156 18.4344 51.7844 18.5984 51.7844 19.0906ZM63.9386 18.4344C65.6448 20.3047 66.8261 22.175 66.8261 23.8156C66.8261 24.4719 66.8261 26.0797 65.1854 26.0797C63.7089 26.0797 63.5448 24.7016 63.5448 23.0937C63.5448 22.6016 63.3808 22.4375 62.8886 22.4375H60.9526C60.4604 22.4375 60.2964 22.7 60.2964 23.1922C60.2964 26.7359 61.6745 29.0984 65.1854 29.0984C68.4667 29.0984 70.1073 26.9 70.1073 23.9469C70.1073 21.0594 68.3683 18.5984 66.4651 16.5312C64.7589 14.6609 63.5776 12.8562 63.5776 11.2156C63.5776 10.5594 63.5776 8.95156 65.2183 8.95156C66.6948 8.95156 66.8589 10.3297 66.8589 11.9375C66.8589 12.4297 67.0229 12.5938 67.5151 12.5938H69.4511C69.9433 12.5938 70.1073 12.3312 70.1073 11.8391C70.1073 8.29531 68.7292 5.93281 65.2183 5.93281C61.937 5.93281 60.2964 8.13125 60.2964 11.0844C60.2964 13.9719 62.0354 16.3672 63.9386 18.4344ZM72.2435 29H79.1669C79.6591 29 79.8232 28.8359 79.8232 28.3437V26.5719C79.8232 26.0797 79.6591 25.9156 79.1669 25.9156H75.5247C74.8685 25.9156 74.8685 25.9156 74.8685 25.2594V19.0906C74.8685 18.4344 74.8685 18.4344 75.5247 18.4344H79.1669C79.6591 18.4344 79.8232 18.2703 79.8232 17.7781V16.0062C79.8232 15.5141 79.6591 15.35 79.1669 15.35H75.5247C74.8685 15.35 74.8685 15.35 74.8685 14.6937V9.77187C74.8685 9.11562 74.8685 9.11562 75.5247 9.11562H79.1669C79.6591 9.11562 79.8232 8.95156 79.8232 8.45937V6.6875C79.8232 6.19531 79.6591 6.03125 79.1669 6.03125H72.2435C71.7513 6.03125 71.5872 6.19531 71.5872 6.6875V28.3437C71.5872 29 71.9153 29 72.2435 29ZM89.9802 29H91.7849C92.277 29 92.4411 28.8359 92.4411 28.3437V6.6875C92.4411 6.19531 92.277 6.03125 91.7849 6.03125H89.8161C89.3239 6.03125 89.1599 6.19531 89.1599 6.6875V17.8437C89.1599 18.0078 88.963 18.0406 88.8974 17.8437L84.8942 6.45781C84.763 6.09687 84.5989 6.03125 84.238 6.03125H82.4333C81.9411 6.03125 81.777 6.19531 81.777 6.6875V28.3437C81.777 28.8359 81.9411 29 82.4333 29H84.402C84.8942 29 85.0583 28.8359 85.0583 28.3437V17.3516C85.0583 17.1875 85.2552 17.1219 85.3208 17.3516L89.3239 28.6062C89.4552 28.9344 89.6849 29 89.9802 29ZM97.5522 18.4344C99.2584 20.3047 100.44 22.175 100.44 23.8156C100.44 24.4719 100.44 26.0797 98.799 26.0797C97.3225 26.0797 97.1584 24.7016 97.1584 23.0937C97.1584 22.6016 96.9943 22.4375 96.5022 22.4375H94.5662C94.074 22.4375 93.91 22.7 93.91 23.1922C93.91 26.7359 95.2881 29.0984 98.799 29.0984C102.08 29.0984 103.721 26.9 103.721 23.9469C103.721 21.0594 101.982 18.5984 100.079 16.5312C98.3725 14.6609 97.1912 12.8562 97.1912 11.2156C97.1912 10.5594 97.1912 8.95156 98.8318 8.95156C100.308 8.95156 100.472 10.3297 100.472 11.9375C100.472 12.4297 100.637 12.5938 101.129 12.5938H103.065C103.557 12.5938 103.721 12.3312 103.721 11.8391C103.721 8.29531 102.343 5.93281 98.8318 5.93281C95.5506 5.93281 93.91 8.13125 93.91 11.0844C93.91 13.9719 95.649 16.3672 97.5522 18.4344ZM105.857 29H112.78C113.273 29 113.437 28.8359 113.437 28.3437V26.5719C113.437 26.0797 113.273 25.9156 112.78 25.9156H109.138C108.482 25.9156 108.482 25.9156 108.482 25.2594V19.0906C108.482 18.4344 108.482 18.4344 109.138 18.4344H112.78C113.273 18.4344 113.437 18.2703 113.437 17.7781V16.0062C113.437 15.5141 113.273 15.35 112.78 15.35H109.138C108.482 15.35 108.482 15.35 108.482 14.6937V9.77187C108.482 9.11562 108.482 9.11562 109.138 9.11562H112.78C113.273 9.11562 113.437 8.95156 113.437 8.45937V6.6875C113.437 6.19531 113.273 6.03125 112.78 6.03125H105.857C105.365 6.03125 105.201 6.19531 105.201 6.6875V28.3437C105.201 29 105.529 29 105.857 29Z" fill="white"/>
</svg>
