<svg width="41" height="45" viewBox="0 0 41 45" fill="none" xmlns="http://www.w3.org/2000/svg">
<path d="M35.3776 0.963506L34.1322 1.92188V7.73876V13.5608L32.687 14.391C31.8875 14.8471 30.9855 15.3699 30.6729 15.5441L30.1091 15.8721L30.0989 17.507L30.0835 19.1419L30.5089 19.3776C30.7395 19.5109 31.6005 20.0029 32.4154 20.4744C33.2354 20.9459 34.9317 21.9196 36.1976 22.6423L38.4885 23.9543V33.2356L38.4936 42.5119L39.698 43.46C40.3591 43.9828 40.9229 44.4133 40.9485 44.4235C40.9844 44.4338 40.9997 40.4721 40.9997 33.456V22.4731L40.1644 21.9914C38.2425 20.8793 36.3411 19.7825 35.2854 19.1829C34.245 18.5884 33.6044 18.2194 32.9176 17.8145C32.6972 17.6864 32.646 17.63 32.646 17.5224C32.646 17.4455 32.6767 17.3635 32.7126 17.3328C32.769 17.2866 33.753 16.7126 35.8337 15.5083L36.6435 15.0419V7.51838C36.6435 3.38251 36.6384 5.73899e-06 36.6332 5.73899e-06C36.623 5.73899e-06 36.0592 0.435631 35.3776 0.963506Z" fill="white"/>
<path d="M4.35625 7.56961L4.36137 15.0931L6.355 16.2462C8.815 17.6659 8.70737 17.5019 7.60037 18.1527C6.83675 18.5935 4.86362 19.7261 3.81812 20.3206C3.51062 20.4949 2.92125 20.8382 2.51125 21.074C2.10125 21.3097 1.39912 21.7197 0.948125 21.9811C0.497125 22.2425 0.097375 22.4834 0.0615 22.509C0.015375 22.55 0 24.8152 0 33.5226C0 39.5547 0.015375 44.485 0.041 44.485C0.0615 44.485 0.630375 44.0442 1.30687 43.5112L2.53687 42.5375L2.5625 33.251L2.58812 23.9696L3.76687 23.2931C4.41775 22.9241 6.06287 21.976 7.43125 21.1919C8.79962 20.4077 10.1475 19.6339 10.4294 19.4699L10.9419 19.1777L10.9572 17.589L10.9675 16.0002L10.8291 15.8977C10.6907 15.8055 9.16862 14.9189 7.626 14.0374L6.8675 13.6069V7.78998V1.97311L5.6785 1.05061C5.02762 0.543234 4.45875 0.107609 4.42287 0.0871091C4.3665 0.0512341 4.35625 1.35298 4.35625 7.56961Z" fill="white"/>
<path d="M30.4064 4.80726L29.1662 5.76563L29.1508 9.11738L29.1354 12.4691L28.3411 12.915C27.9054 13.161 27.2956 13.5095 26.9829 13.694L26.4192 14.022L26.4038 17.507L26.3936 20.9869L27.5057 21.6275C28.1207 21.976 28.8074 22.3706 29.0329 22.5039C29.6018 22.837 32.8664 24.7025 33.1996 24.8819L33.4661 25.0254V31.775V38.5246L34.6909 39.4933C35.3674 40.0263 35.9414 40.467 35.9722 40.4773C36.0132 40.4926 36.0286 38.0275 36.0286 32.0415V23.5853L34.7627 22.8575C34.0606 22.4526 33.1483 21.9248 32.7229 21.6788C32.3027 21.4328 31.4366 20.9356 30.8011 20.5769C30.1656 20.213 29.5044 19.8338 29.3302 19.7364L29.0073 19.5519V17.5121V15.4775L29.2277 15.3443C29.3456 15.2725 29.9452 14.924 30.5602 14.5704L31.6723 13.9246V8.88675C31.6723 6.11413 31.6672 3.84376 31.6621 3.84376C31.6518 3.84888 31.0881 4.27938 30.4064 4.80726Z" fill="white"/>
<path d="M9.32746 8.93286V13.981L9.72721 14.2065C11.2647 15.088 11.972 15.5031 12.0027 15.5492C12.0232 15.58 12.0386 16.4871 12.0386 17.5634C12.0386 19.0906 12.0232 19.5365 11.972 19.5877C11.9361 19.6236 11.4646 19.9055 10.9265 20.2181C9.36846 21.1099 7.50809 22.181 6.21659 22.919L5.02759 23.6006L5.02246 32.0722C5.02246 39.114 5.03271 40.5387 5.08909 40.5029C5.13009 40.4824 5.69384 40.0365 6.34471 39.5189L7.53371 38.581V31.8314V25.0869L8.13846 24.7486C8.65096 24.4616 13.4428 21.7197 14.3141 21.2124L14.6062 21.0432V17.5531L14.6011 14.0681L13.694 13.5505C13.1968 13.2635 12.5716 12.9099 12.3153 12.7664L11.8387 12.4999V9.15836V5.81686L10.6753 4.91998C10.0398 4.42798 9.47609 3.99236 9.41971 3.95648C9.33259 3.88986 9.32746 4.04361 9.32746 8.93286Z" fill="white"/>
<path d="M19.5366 13.2789C18.035 13.53 16.5641 14.6319 15.862 16.0412C15.452 16.851 15.3239 17.4199 15.3239 18.3731C15.3239 19.393 15.4879 20.0592 15.944 20.8792C16.0824 21.1304 16.19 21.3405 16.1797 21.3456C16.1746 21.3507 15.698 21.6275 15.1189 21.9606C14.5397 22.2937 13.8837 22.673 13.6582 22.8062C13.4327 22.9395 12.6947 23.3649 12.0182 23.7544C11.3417 24.1439 10.737 24.4924 10.6704 24.5334L10.5576 24.6V30.3912V36.1774L10.778 36.3055C10.8959 36.3721 11.803 36.8949 12.787 37.4637C13.7761 38.0326 15.042 38.7655 15.6057 39.0884C16.1695 39.4164 16.9177 39.8469 17.2714 40.0519C17.625 40.2569 18.4962 40.7642 19.2086 41.1742L20.5052 41.9225L22.053 41.0307C22.9037 40.5387 24.0261 39.893 24.5489 39.5906C26.0761 38.7091 28.3311 37.4022 29.6482 36.6437L30.417 36.203L30.4324 30.4015L30.4426 24.6051L30.3299 24.5334C30.2632 24.4924 29.6585 24.1439 28.982 23.7544C28.3055 23.3649 27.547 22.9241 27.2907 22.7755C27.0396 22.6269 26.4041 22.263 25.8814 21.9606C25.3586 21.6582 24.9179 21.3969 24.8922 21.3764C24.8717 21.3559 24.9691 21.1201 25.1075 20.8536C25.2459 20.5871 25.4252 20.1617 25.5072 19.9106C25.6456 19.4699 25.6507 19.4032 25.6507 18.45C25.6507 17.548 25.6405 17.4096 25.5277 17.0201C24.9947 15.1597 23.365 13.6632 21.479 13.3045C21.0177 13.2174 19.9979 13.202 19.5366 13.2789Z" fill="white"/>
</svg>
