<svg width="59" height="59" viewBox="0 0 59 59" fill="none" xmlns="http://www.w3.org/2000/svg">
<path d="M22.9689 19.2575C23.2651 19.105 23.5977 19.0371 23.93 19.0614C24.2623 19.0857 24.5814 19.2012 24.8523 19.3952L37.5295 28.4503C37.7643 28.6178 37.9556 28.839 38.0877 29.0954C38.2197 29.3518 38.2886 29.636 38.2886 29.9245C38.2886 30.2129 38.2197 30.4971 38.0877 30.7535C37.9556 31.0099 37.7643 31.2311 37.5295 31.3986L24.8523 40.4537C24.5815 40.6476 24.2625 40.763 23.9304 40.7872C23.5983 40.8115 23.2659 40.7438 22.9697 40.5914C22.6736 40.439 22.4252 40.208 22.2519 39.9236C22.0786 39.6392 21.987 39.3126 21.9873 38.9796V20.8693C21.987 20.5364 22.0784 20.2098 22.2516 19.9255C22.4247 19.6411 22.6729 19.41 22.9689 19.2575V19.2575Z" fill="white"/>
<rect x="1.14646" y="1.8397" width="56.1696" height="56.1696" rx="28.0848" stroke="white" stroke-width="1.78316"/>
</svg>
